<?xml version="1.0" encoding="UTF-8"?>
<svg xmlns="http://www.w3.org/2000/svg" width="920" height="520" viewBox="0 0 920 520" role="img" aria-labelledby="title desc">
  <title id="title">Strategy Space and Payoff Landscape</title>
  <desc id="desc">Strategies are complete plans; payoffs map profiles into comparable outcomes.</desc>
  <defs>
    <style>
      .bg{fill:#f7faff}.card{fill:#fff;stroke:#cbd6e7;stroke-width:2}.blue{fill:#002fa7}.line{stroke:#002fa7;stroke-width:4;stroke-linecap:round;stroke-linejoin:round;fill:none}.thin{stroke:#8aa2c6;stroke-width:2;stroke-linecap:round;stroke-linejoin:round;fill:none}.dash{stroke-dasharray:10 9}.label{font:700 24px Arial,sans-serif;fill:#172033}.small{font:600 17px Arial,sans-serif;fill:#5f6f87}.tiny{font:600 14px Arial,sans-serif;fill:#5f6f87}.en{font:800 18px Georgia,'Times New Roman',serif;letter-spacing:.04em;fill:#002fa7}.math{font:italic 22px 'Times New Roman','Cambria Math',serif;fill:#172033}.node{fill:#fff;stroke:#002fa7;stroke-width:3}.soft{fill:#eaf1ff;stroke:#8aa2c6;stroke-width:2}
    </style>
  </defs>
  <rect class="bg" width="920" height="520" rx="26"/>
  <rect x="28" y="26" width="864" height="468" rx="24" fill="#fff" stroke="#d8e2ef" stroke-width="2"/>
  <text x="58" y="70" class="en">GAME THEORY FIGURE</text>
  <text x="58" y="108" class="label">Strategy Space and Payoff Landscape</text>
  <text x="58" y="136" class="small">Strategies are complete plans; payoffs map profiles into comparable outcomes.</text>
  <g transform="translate(90,175)"><path class="line" d="M56 248V18M56 248h420"/><path class="thin" d="M126 218C190 116 274 76 384 36M126 218C220 248 326 225 454 156"/><text x="468" y="275" class="small">Player A strategy</text><text x="0" y="8" class="small">Player B strategy</text><circle class="node" cx="246" cy="128" r="16"/><text x="270" y="134" class="label">candidate equilibrium</text><rect x="560" y="20" width="190" height="180" rx="18" class="card"/><text x="590" y="60" class="label">Payoff grid</text><text x="600" y="105" class="math">u_A(s_A,s_B)</text><text x="600" y="145" class="math">u_B(s_A,s_B)</text><path class="line dash" d="M492 142c38-10 64-34 84-72"/></g>
</svg>