<?xml version="1.0" encoding="UTF-8"?>
<svg xmlns="http://www.w3.org/2000/svg" width="920" height="520" viewBox="0 0 920 520" role="img" aria-labelledby="title desc">
  <title id="title">Figure 1.1 Interdisciplinary Position</title>
  <desc id="desc">Strategic analysis combines formal math, incentives, beliefs, and institutions.</desc>
  <defs>
    <style>
      .bg{fill:#f7faff}.card{fill:#fff;stroke:#cbd6e7;stroke-width:2}.blue{fill:#002fa7}.line{stroke:#002fa7;stroke-width:4;stroke-linecap:round;stroke-linejoin:round;fill:none}.thin{stroke:#8aa2c6;stroke-width:2;stroke-linecap:round;stroke-linejoin:round;fill:none}.dash{stroke-dasharray:10 9}.label{font:700 24px Arial,sans-serif;fill:#172033}.small{font:600 17px Arial,sans-serif;fill:#5f6f87}.tiny{font:600 14px Arial,sans-serif;fill:#5f6f87}.en{font:800 18px Georgia,'Times New Roman',serif;letter-spacing:.04em;fill:#002fa7}.math{font:italic 22px 'Times New Roman','Cambria Math',serif;fill:#172033}.node{fill:#fff;stroke:#002fa7;stroke-width:3}.soft{fill:#eaf1ff;stroke:#8aa2c6;stroke-width:2}
    </style>
  </defs>
  <rect class="bg" width="920" height="520" rx="26"/>
  <rect x="28" y="26" width="864" height="468" rx="24" fill="#fff" stroke="#d8e2ef" stroke-width="2"/>
  <text x="58" y="70" class="en">GAME THEORY FIGURE</text>
  <text x="58" y="108" class="label">Figure 1.1 Interdisciplinary Position</text>
  <text x="58" y="136" class="small">Strategic analysis combines formal math, incentives, beliefs, and institutions.</text>
  <g transform="translate(0,8)"><circle cx="318" cy="286" r="112" fill="#eaf1ff" stroke="#002fa7" stroke-width="4" opacity=".9"/><circle cx="458" cy="286" r="112" fill="#f7faff" stroke="#002fa7" stroke-width="4" opacity=".9"/><circle cx="388" cy="382" r="112" fill="#ffffff" stroke="#002fa7" stroke-width="4" opacity=".9"/><text x="282" y="271" class="label">Math</text><text x="500" y="271" class="label">Economics</text><text x="300" y="443" class="label">Beliefs + Rules</text><rect x="348" y="292" width="150" height="64" rx="18" class="blue"/><text x="377" y="332" font-size="26" font-weight="900" fill="#fff" font-family="Arial">Game</text><path class="line dash" d="M646 214c58 28 76 82 45 132s-91 68-145 31"/><circle class="node" cx="646" cy="214" r="24"/><circle class="node" cx="691" cy="346" r="24"/><circle class="node" cx="546" cy="377" r="24"/><text x="620" y="194" class="tiny">players</text><text x="705" y="351" class="tiny">moves</text><text x="500" y="410" class="tiny">payoffs</text></g>
</svg>